<svg width="32" height="30" viewBox="0 0 32 30" fill="none" xmlns="http://www.w3.org/2000/svg">
<path d="M31.3805 14.6295L26.6659 24.0587C25.9181 25.5679 24.7628 26.8376 23.3306 27.7239C21.8987 28.6105 20.2468 29.0788 18.5627 29.0755H6.62891V11.4623L17.4943 0C18.1317 0.0526182 18.7078 0.400226 19.0518 0.939213C19.3958 1.47854 19.4682 2.14749 19.2475 2.74759L15.9914 11.1825C15.9477 11.2973 15.9615 11.4259 16.0283 11.5288C16.0986 11.6255 16.2108 11.6827 16.3305 11.6834H29.5902C30.2947 11.6863 30.9475 12.0527 31.3175 12.6519C31.6878 13.2511 31.7226 13.9989 31.4099 14.63L31.3805 14.6295Z" fill="black"/>
<path d="M0 11.6875H5.89323V29.0801H0V11.6875Z" fill="black"/>
</svg>
