<svg width="567" height="59" viewBox="0 0 567 59" fill="none" xmlns="http://www.w3.org/2000/svg">
<path fill-rule="evenodd" clip-rule="evenodd" d="M54.7611 21.9322H54.7611H54.7613C55.7664 21.9359 56.7707 21.9396 57.7694 21.9267C58.1424 21.9267 58.5552 21.9639 58.9707 22.0015L58.9707 22.0015C60.0052 22.0949 61.0566 22.1899 61.5534 21.7148C62.1936 21.0967 62.061 19.9795 61.9306 18.8799L61.9306 18.8798C61.8822 18.4715 61.834 18.0656 61.8258 17.6886C61.6745 9.6666 57.3759 3.91496 49.7777 1.58404C45.7515 0.342897 41.6043 0.0704547 37.4268 0.736433C26.8922 2.40138 19.6875 9.78769 19.9297 21.291C19.9701 23.1274 19.9566 24.9639 19.9432 26.8004C19.9364 27.7187 19.9297 28.6369 19.9297 29.5551C19.9297 30.5808 19.9182 31.6036 19.9068 32.6253C19.881 34.9206 19.8553 37.2103 19.96 39.5146C20.2022 45.6597 22.5331 50.9875 27.8004 54.378C36.1857 59.7966 45.0553 59.9177 53.8341 55.3164C57.7997 53.2277 60.2214 49.6556 61.2507 45.2662C61.6386 43.6328 61.6272 41.9581 61.6158 40.2885C61.6103 39.4827 61.6048 38.6781 61.6442 37.8799C61.6745 36.9415 61.3112 36.8204 60.5241 36.8204C59.1057 36.855 57.6873 36.85 56.2688 36.8451C55.205 36.8414 54.1411 36.8377 53.0773 36.8506C52.7251 36.8599 52.336 36.8153 51.9464 36.7706C51.0638 36.6693 50.1792 36.5677 49.7171 37.0928C49.3015 37.5522 49.3759 38.4543 49.4492 39.342C49.4773 39.6827 49.5052 40.0213 49.5052 40.3319C49.5052 44.7516 47.6586 47.0825 43.2995 47.6577C38.6982 48.2631 33.4612 46.2954 33.2493 40.1805C33.0071 33.1878 33.0374 26.1647 33.2493 19.1719C33.3704 15.055 35.0959 12.6332 38.6074 11.5132C40.1513 11.0288 41.7557 10.9683 43.3298 11.1196C46.9624 11.4829 48.9906 13.5717 49.5355 17.174C49.7171 18.4454 49.7171 19.6866 49.6869 20.958C49.6869 21.745 49.929 21.9872 50.7464 21.9569C52.0785 21.9223 53.4205 21.9273 54.7611 21.9322ZM180.37 5.70089C179.068 2.82508 176.283 1.12986 173.317 1.43257C170.169 1.73529 167.686 3.7635 166.929 6.63932C166.142 9.6665 167.384 12.7239 170.138 14.4797C170.206 14.5218 170.273 14.5616 170.34 14.601L170.34 14.6011C170.513 14.7032 170.682 14.8027 170.835 14.9338C172.318 16.1144 175.224 15.9933 176.798 14.9943C178.493 13.9045 179.704 12.512 180.673 10.8168V6.3366C180.604 6.15298 180.518 5.98676 180.44 5.83794L180.44 5.83764L180.44 5.83747L180.44 5.83724C180.416 5.79004 180.392 5.74459 180.37 5.70089ZM13.7854 3.18844C13.7854 2.12893 13.5432 1.85647 12.4837 1.88675C9.50468 1.90949 6.50857 1.88098 3.52104 1.85256L3.52101 1.85256L3.52099 1.85256L3.52097 1.85256C2.53161 1.84314 1.54319 1.83374 0.556641 1.82621V56.7695H0.558139C4.52325 56.7695 8.51861 56.7695 12.4837 56.83C13.5432 56.8603 13.7854 56.5878 13.7854 55.5283C13.7551 38.0615 13.7551 20.625 13.7854 3.18844ZM151.42 1.89642C153.462 1.90878 155.511 1.92118 157.545 1.85628C158.695 1.82601 159.028 2.12873 159.089 3.30933C159.058 18.536 159.058 33.7627 159.058 48.9894C159.028 51.2901 159.028 53.5604 159.058 55.8611C159.089 56.6179 158.877 56.8298 158.12 56.8298C155.153 56.7995 152.217 56.7995 149.25 56.8298C148.645 56.8298 148.342 56.6179 148.009 56.1335C145.981 53.0609 143.93 49.9959 141.879 46.9308C139.828 43.8658 137.777 40.8009 135.749 37.7283C133.932 34.9476 132.162 32.1353 130.394 29.3257L130.387 29.3153L130.383 29.3091C129.71 28.2397 129.038 27.1707 128.363 26.104C128.317 26.1191 128.279 26.1342 128.242 26.1494C128.204 26.1645 128.166 26.1796 128.121 26.1948C128.121 28.6241 128.119 31.0534 128.117 33.4827C128.111 40.7706 128.105 48.0585 128.151 55.3465C128.151 56.4665 127.939 56.8601 126.728 56.8298C124 56.7259 121.25 56.7557 118.515 56.7854L118.513 56.7854L118.511 56.7855C118.061 56.7904 117.611 56.7952 117.162 56.7995C116.284 56.7995 115.951 56.6482 115.951 55.6795C115.982 38.1218 115.982 20.5642 115.951 3.00661C115.951 2.18927 116.103 1.82601 117.011 1.85628C120.129 1.91682 123.217 1.91682 126.304 1.85628C127.145 1.85628 127.427 2.31838 127.738 2.82838C127.774 2.88736 127.81 2.94699 127.848 3.00661L127.849 3.0079L127.85 3.00905L127.851 3.01064C133.934 12.6963 140.018 22.3819 146.132 32.0675C146.171 32.1313 146.205 32.1978 146.239 32.2647C146.368 32.5153 146.5 32.7718 146.859 32.9151V4.06612C146.859 1.88656 146.859 1.88655 148.978 1.88655C149.79 1.88655 150.604 1.89148 151.42 1.89642ZM101.845 4.33845C106.325 7.36563 108.747 11.6642 109.504 16.9618C109.852 19.4888 109.801 22.0269 109.754 24.4019C109.722 25.9531 109.693 27.4346 109.776 28.798V38.9391C109.746 48.5049 103.086 56.2848 93.6114 57.8892C87.7084 58.8882 81.9265 58.5854 76.5381 55.8307C69.6361 52.3192 66.397 46.4162 66.1851 38.8483C66.0035 32.6425 66.064 26.4066 66.1549 20.2009C66.3365 9.24248 73.7531 1.58373 84.8325 0.615032C90.9474 0.07014 96.6991 0.857202 101.845 4.33845ZM88.8587 47.7179C93.46 47.3849 96.4266 44.2972 96.4872 39.817C96.578 33.0058 96.5477 26.1644 96.5174 19.3532C96.5174 17.2948 95.912 15.2968 94.5195 13.6924C92.2794 11.1193 88.3441 10.3625 84.6812 11.5734C81.7145 12.5421 79.868 15.0547 79.6863 18.8992C79.5615 21.2916 79.594 23.6984 79.6265 26.1096C79.6413 27.2069 79.6561 28.3052 79.6561 29.4035H79.5955V36.699C79.5955 37.0818 79.5869 37.4646 79.5783 37.8466C79.5509 39.0656 79.5236 40.2761 79.7772 41.4516C80.8367 46.2648 84.5298 48.0206 88.8587 47.7179Z" fill="white"/>
<path d="M243.16 1.93614H220.877V57.0623H235.551V37.8846H243.16C255.04 37.8846 261.872 31.285 261.872 19.7939C261.872 8.6134 254.962 1.93614 243.16 1.93614ZM240.132 27.8687H235.551V11.952H240.132C244.48 11.952 246.577 14.3589 246.577 19.7939C246.577 25.1513 244.403 27.8687 240.132 27.8687Z" fill="#FEFEFE"/>
<path d="M292.997 57.0623H308.603L299.363 33.3037C304.565 30.9744 307.671 26.0053 307.671 18.8622C307.671 8.14754 301.382 1.93614 288.183 1.93614H266.598V57.0623H281.273V36.0988H286.086L292.997 57.0623ZM281.273 26.937V11.7191H285.776C290.357 11.7191 292.375 14.0484 292.375 18.8622C292.375 24.0643 290.279 26.937 285.776 26.937H281.273Z" fill="#FEFEFE"/>
<path d="M328.586 46.3477V34.0801H346.211V23.5208H328.586V12.6508H347.375V1.93614H313.911V57.0623H347.919V46.3477H328.586Z" fill="#FEFEFE"/>
<path d="M371.249 58.3822C384.371 58.3822 391.902 50.6956 391.902 40.2915C391.902 32.2167 388.952 27.4805 380.489 24.6078L371.948 21.735C367.911 20.4151 365.97 18.3964 365.97 15.7565C365.97 13.1943 368.221 11.4085 371.637 11.4085C375.52 11.4085 379.635 13.8931 381.653 19.7163L392.912 13.039C389.728 4.26541 382.197 0.616211 372.259 0.616211C360.69 0.616211 352.305 6.82762 352.305 17.387C352.305 25.3065 355.798 30.9744 363.951 33.5366L372.414 36.1765C376.684 37.4188 377.694 39.2822 377.694 41.9997C377.694 44.7172 375.675 46.8135 371.793 46.8135C367.29 46.8135 364.184 43.8631 361.777 37.9623L349.509 44.329C353.081 53.0249 360.379 58.3822 371.249 58.3822Z" fill="#FEFEFE"/>
<path d="M411.688 46.3477V34.0801H429.313V23.5208H411.688V12.6508H430.477V1.93614H397.013V57.0623H431.021V46.3477H411.688Z" fill="#FEFEFE"/>
<path d="M437.275 57.0623H450.707V32.9931C450.707 29.1887 450.63 24.4525 450.63 21.735H450.785C451.173 25.1513 452.027 28.1793 453.58 31.4403L465.848 57.0623H480.289V1.93614H466.935V24.2195C466.935 27.9464 467.012 31.9838 467.012 35.5553H466.779C466.236 31.4403 465.382 28.7228 464.062 25.85L452.881 1.93614H437.275V57.0623Z" fill="#FEFEFE"/>
<path d="M524.713 1.93614H484.416V13.7378H497.305V57.0623H511.902V13.7378H524.713V1.93614Z" fill="#FEFEFE"/>
<path d="M545.338 58.3822C558.46 58.3822 565.991 50.6956 565.991 40.2915C565.991 32.2167 563.041 27.4805 554.578 24.6078L546.037 21.735C542 20.4151 540.059 18.3964 540.059 15.7565C540.059 13.1943 542.31 11.4085 545.727 11.4085C549.609 11.4085 553.724 13.8931 555.742 19.7163L567.001 13.039C563.817 4.26541 556.286 0.616211 546.348 0.616211C534.779 0.616211 526.394 6.82762 526.394 17.387C526.394 25.3065 529.888 30.9744 538.04 33.5366L546.503 36.1765C550.773 37.4188 551.783 39.2822 551.783 41.9997C551.783 44.7172 549.764 46.8135 545.882 46.8135C541.379 46.8135 538.273 43.8631 535.866 37.9623L523.598 44.329C527.17 53.0249 534.468 58.3822 545.338 58.3822Z" fill="#FEFEFE"/>
</svg>
