<svg width="37" height="38" viewBox="0 0 37 38" fill="none" xmlns="http://www.w3.org/2000/svg">
<path fill-rule="evenodd" clip-rule="evenodd" d="M27.6499 15.2539C29.2378 15.2539 30.5255 16.612 30.5255 18.2867L30.6113 27.7476C30.6113 30.4185 29.6243 32.9533 27.8217 34.8544C26.0187 36.7555 23.6153 37.7965 21.083 37.7965H16.5336C13.2717 37.7965 10.2243 36.2575 8.16416 33.6321L0.867825 24.3527C0.352882 23.6738 0.0954056 22.8138 0.224144 21.9536C0.309753 21.0936 0.781883 20.3241 1.46867 19.8262C2.62759 19.0115 4.17272 19.1473 5.1598 20.1883L8.07822 23.2662C8.20695 23.402 8.33599 23.4474 8.50754 23.3568C8.67909 23.2665 8.76501 23.1304 8.76501 22.9495V3.03278C8.76501 1.35804 10.0527 0 11.6407 0C12.4131 0 13.1427 0.316679 13.7008 0.905225C14.2585 1.49343 14.5591 2.26326 14.5591 3.07788L14.5588 13.3531C15.074 12.493 15.9752 11.9045 17.0054 11.9045C18.5933 11.9045 19.881 13.2625 19.881 14.9372V15.0278C20.3963 14.1677 21.2975 13.5792 22.3276 13.5792C23.9156 13.5792 25.2033 14.9372 25.2033 16.612V16.7026C25.7185 15.8425 26.6197 15.2539 27.6499 15.2539ZM23.6302 7.83031H31.828L31.0556 8.64524C30.4547 9.27895 30.4547 10.2748 31.0556 10.9085C31.3562 11.2255 31.7424 11.3613 32.1286 11.3613C32.5148 11.3613 32.901 11.2255 33.2016 10.9085L36.5494 7.37781C37.1502 6.74409 37.1502 5.74824 36.5494 5.11454L33.2016 1.58385C32.6007 0.950151 31.6564 0.950151 31.0556 1.58385C30.4547 2.21756 30.4547 3.21342 31.0556 3.84711L31.828 4.66173L23.6302 4.66141C22.8147 4.66141 22.1279 5.38573 22.1279 6.24586C22.1279 7.10599 22.8147 7.83031 23.6302 7.83031Z" fill="black"/>
</svg>
