<svg width="25" height="36" viewBox="0 0 25 36" fill="none" xmlns="http://www.w3.org/2000/svg">
<path d="M2.70911 30.2711C3.00474 30.6789 6.50815 35.3424 11.9691 35.8039C16.5475 36.1892 20.5619 33.4655 22.5595 30.8492C26.717 25.3926 25.597 15.7604 18.8051 7.9876C19.2264 8.79384 20.8661 12.1451 19.5354 15.6663C19.1814 16.6026 18.6933 17.3507 18.2229 17.9288C11.9642 11.3072 16.1529 0 16.1529 0C16.1529 0 2.15295 10.0088 5.87135 22.4584C5.96103 22.7631 6.0551 23.0543 6.14916 23.3409C2.10388 21.083 1.13604 15.2633 1.13604 15.2633C0.826977 16.0651 -1.91924 23.5425 2.4442 29.8993C2.50701 29.9846 2.59202 30.1099 2.70858 30.2712L2.70911 30.2711Z" fill="black"/>
</svg>
