<?xml version="1.0" encoding="UTF-8"?>
<svg width="141px" height="45px" viewBox="0 0 141 45" version="1.1" xmlns="http://www.w3.org/2000/svg" xmlns:xlink="http://www.w3.org/1999/xlink">
    <title>Shape Copy</title>
    <g id="Page-1" stroke="none" stroke-width="1" fill="none" fill-rule="evenodd">
        <g id="Desktop" transform="translate(-541.000000, -490.000000)" fill="#FFFFFF">
            <g id="khaby-icon-logo-new" transform="translate(330.500000, 489.999966)">
                <path d="M253.21,16.6524341 C252.174,16.6486341 251.137,16.6447341 250.108,16.6715341 C249.476,16.6949341 249.289,16.5077341 249.289,15.8995341 C249.312,14.9170341 249.312,13.9579341 249.172,12.9754341 C248.751,10.1916341 247.184,8.57746407 244.376,8.29674407 C243.16,8.17978407 241.92,8.22657407 240.727,8.60086407 C238.014,9.46641407 236.68,11.3378341 236.587,14.5193341 C236.423,19.9231341 236.399,25.3503341 236.587,30.7542341 C236.75,35.4796341 240.797,37.0001341 244.353,36.5323341 C247.722,36.0878341 249.149,34.2865341 249.149,30.8711341 C249.149,30.6311341 249.127,30.3695341 249.105,30.1062341 C249.049,29.4202341 248.991,28.7231341 249.312,28.3681341 C249.669,27.9623341 250.353,28.0408341 251.035,28.1190341 C251.336,28.1536341 251.637,28.1881341 251.909,28.1809341 C252.731,28.1709341 253.553,28.1738341 254.375,28.1766341 C255.472,28.1804341 256.568,28.1843341 257.664,28.1575341 C258.272,28.1575341 258.553,28.2511341 258.529,28.9763341 C258.499,29.5926341 258.503,30.2140341 258.507,30.8362341 L258.507,30.8365341 L258.507,30.8369341 L258.507,30.8372341 L258.507,30.8375341 C258.516,32.1278341 258.525,33.4220341 258.225,34.6842341 C257.43,38.0762341 255.558,40.8366341 252.494,42.4508341 C245.71,46.0065341 238.856,45.9129341 232.376,41.7256341 C228.305,39.1055341 226.504,34.9883341 226.317,30.2395341 C226.236,28.4589341 226.256,26.6895341 226.276,24.9157341 L226.276,24.9142341 L226.276,24.9127341 L226.276,24.9112341 L226.276,24.9097341 C226.285,24.1222341 226.294,23.3338341 226.294,22.5432341 C226.294,21.8336341 226.299,21.1240341 226.304,20.4144341 C226.314,18.9952341 226.325,17.5760341 226.294,16.1568341 C226.106,7.26745407 231.674,1.55951407 239.815,0.272891074 C243.043,-0.241758926 246.248,-0.0312228259 249.359,0.927897074 C255.231,2.72917407 258.553,7.17388407 258.67,13.3730341 C258.676,13.6644341 258.713,13.9781341 258.751,14.2937341 C258.851,15.1434341 258.954,16.0067341 258.459,16.4843341 C258.075,16.8515341 257.263,16.7781341 256.463,16.7059341 C256.142,16.6769341 255.823,16.6481341 255.535,16.6481341 C254.763,16.6581341 253.987,16.6552341 253.21,16.6524341 Z M221.543,2.16792407 C221.543,1.34916407 221.356,1.13862407 220.538,1.16201407 C218.235,1.17959407 215.92,1.15756407 213.611,1.13559407 C212.847,1.12832407 212.083,1.12105407 211.321,1.11523407 L211.321,43.5738341 L211.321,43.5738341 C214.386,43.5738341 217.473,43.5738341 220.538,43.6206341 C221.356,43.6440341 221.543,43.4335341 221.543,42.6147341 C221.52,29.1168341 221.52,15.6424341 221.543,2.16792407 Z M332.638,1.13876407 C331.067,1.18892407 329.483,1.17933407 327.905,1.16978407 C327.275,1.16596407 326.645,1.16216407 326.018,1.16216407 C324.38,1.16216407 324.38,1.16216407 324.38,2.84647407 L324.38,25.1401341 C324.103,25.0294341 324.001,24.8311341 323.902,24.6375341 C323.875,24.5858341 323.849,24.5344341 323.819,24.4851341 C319.102,17.0119341 314.407,9.53870407 309.713,2.06548407 L309.712,2.06404407 L309.712,2.06303407 L309.71,2.06101407 L309.71,2.06000407 L309.709,2.05799407 L309.69,2.02771407 C309.661,1.98285407 309.634,1.93799407 309.607,1.89359407 L309.605,1.89001407 L309.605,1.88998407 C309.364,1.49586407 309.146,1.13876407 308.496,1.13876407 C306.11,1.18555407 303.724,1.18555407 301.315,1.13876407 C300.613,1.11537407 300.496,1.39609407 300.496,2.02771407 C300.519,15.5957341 300.519,29.1638341 300.496,42.7318341 C300.496,43.4804341 300.753,43.5974341 301.432,43.5974341 C301.78,43.5940341 302.128,43.5903341 302.477,43.5865341 C304.59,43.5635341 306.716,43.5404341 308.824,43.6207341 C309.76,43.6441341 309.923,43.3400341 309.923,42.4745341 C309.888,36.8463341 309.893,31.2181341 309.897,25.5900341 L309.897,25.5769341 C309.899,23.7002341 309.9,21.8235341 309.9,19.9469341 C309.916,19.9414341 309.931,19.9360341 309.946,19.9306341 C309.962,19.9243341 309.978,19.9180341 309.994,19.9118341 C310.023,19.9001341 310.052,19.8884341 310.087,19.8767341 C310.607,20.6987341 311.126,21.5225341 311.644,22.3466341 L311.657,22.3658341 C313.023,24.5372341 314.391,26.7107341 315.795,28.8596341 C317.362,31.2337341 318.947,33.6018341 320.531,35.9700341 C322.117,38.3389341 323.702,40.7079341 325.269,43.0827341 C325.527,43.4570341 325.761,43.6207341 326.229,43.6207341 C328.521,43.5974341 330.79,43.5974341 333.083,43.6207341 C333.668,43.6207341 333.831,43.4570341 333.808,42.8722341 C333.784,41.0943341 333.784,39.3398341 333.808,37.5619341 C333.808,25.7951341 333.808,14.0284341 333.831,2.26164407 C333.785,1.34930407 333.527,1.11537407 332.638,1.13876407 Z M295.514,12.8122341 C294.929,8.71846407 293.058,5.39663407 289.595,3.05731407 C285.619,0.367097074 281.174,-0.241122926 276.448,0.179954074 C267.887,0.928536074 262.155,6.84700407 262.015,15.3153341 C261.945,20.1109341 261.898,24.9299341 262.038,29.7255341 C262.202,35.5738341 264.705,40.1355341 270.039,42.8491341 C274.203,44.9779341 278.671,45.2118341 283.232,44.4398341 C290.555,43.2000341 295.701,37.1879341 295.724,29.7957341 L295.724,21.9590341 C295.66,20.9053341 295.683,19.7604341 295.707,18.5617341 C295.743,16.7264341 295.783,14.7651341 295.514,12.8122341 Z M285.455,30.4741341 C285.408,33.9363341 283.116,36.3224341 279.56,36.5797341 C276.215,36.8136341 273.361,35.4568341 272.542,31.7373341 C272.346,30.8289341 272.367,29.8935341 272.388,28.9515341 C272.395,28.6563341 272.401,28.3604341 272.401,28.0646341 L272.401,22.4268341 L272.448,22.4268341 C272.448,21.5781341 272.437,20.7294341 272.425,19.8815341 C272.4,18.0181341 272.374934,16.1582341 272.472,14.3094341 C272.612,11.3385341 274.039,9.39686407 276.332,8.64828407 C279.162,7.71255407 282.203,8.29738407 283.934,10.2858341 C285.01,11.5256341 285.478,13.0696341 285.478,14.6603341 C285.502,19.9238341 285.525,25.2106341 285.455,30.4741341 Z M350.276,4.10996407 C349.27,1.88761407 347.117,0.577594074 344.825,0.811525074 C342.392,1.04545407 340.474,2.61280407 339.889,4.83515407 C339.281,7.17447407 340.24,9.53718407 342.369,10.8940341 C342.394,10.9096341 342.419,10.9249341 342.444,10.9398341 C342.471,10.9560341 342.498,10.9719341 342.525,10.9878341 C342.658,11.0667341 342.789,11.1436341 342.907,11.2449341 C344.053,12.1572341 346.299,12.0636341 347.515,11.2916341 C348.825,10.4495341 349.761,9.37343407 350.509,8.06341407 L350.509,4.60122407 C350.456,4.45915407 350.389,4.33056407 350.33,4.21546407 C350.311,4.17894407 350.292,4.14377407 350.276,4.10996407 Z" id="Shape-Copy"></path>
// implementation parameter bug dependency parameter object module value refactor
            </g>
        </g>
    </g>
</svg>