<svg width="25" height="19" viewBox="0 0 25 19" fill="none" xmlns="http://www.w3.org/2000/svg">
<path d="M20.9006 1.55951C20.6227 1.28159 20.1721 1.28159 19.894 1.55951C19.6161 1.83744 19.6161 2.28805 19.894 2.56613C21.7044 4.37651 22.7015 6.78783 22.7015 9.35559C22.7015 11.9233 21.7044 14.3347 19.894 16.145C19.6161 16.423 19.6161 16.8736 19.894 17.1517C20.0329 17.2908 20.2151 17.3603 20.3973 17.3603C20.5795 17.3603 20.7617 17.2908 20.9005 17.1517C22.9798 15.0723 24.1249 12.3036 24.1249 9.35572C24.125 6.40719 22.98 3.63869 20.9006 1.55934L20.9006 1.55951Z" fill="white"/>
<path d="M18.6214 3.84085C18.3435 3.56276 17.8929 3.56293 17.6148 3.84068C17.3367 4.1186 17.3367 4.56921 17.6148 4.8473C20.1005 7.33302 20.1005 11.3778 17.6148 13.8636C17.3367 14.1415 17.3367 14.5921 17.6148 14.8702C17.7538 15.0092 17.936 15.0787 18.118 15.0787C18.3002 15.0787 18.4823 15.0092 18.6213 14.8702C21.6622 11.8293 21.6622 6.88166 18.6215 3.84094L18.6214 3.84085Z" fill="white"/>
<path d="M16.3381 6.1225C16.0602 5.84458 15.6096 5.84458 15.3315 6.1225C15.0536 6.40042 15.0536 6.85104 15.3315 7.12912C16.5591 8.35708 16.5591 10.3547 15.3315 11.5824C15.0536 11.8603 15.0536 12.3109 15.3315 12.589C15.4704 12.728 15.6526 12.7975 15.8346 12.7975C16.0168 12.7975 16.199 12.728 16.338 12.589C18.1209 10.8061 18.1209 7.90537 16.3381 6.12233L16.3381 6.1225Z" fill="white"/>
<path d="M0.875 6.57738V12.1339C0.875 12.527 1.1936 12.8456 1.58674 12.8456H5.21279V5.86572H1.58674C1.19358 5.86572 0.875 6.18432 0.875 6.57747V6.57738Z" fill="white"/>
<path d="M13.409 0.0687322C13.1608 -0.0492177 12.8666 -0.013288 12.6537 0.160583L6.63477 5.07675V13.6341L12.6537 18.5502C12.7834 18.656 12.943 18.7107 13.1042 18.7107C13.2079 18.7107 13.3119 18.6882 13.409 18.6421C13.6575 18.5243 13.8158 18.274 13.8158 17.999V0.711687C13.8158 0.436816 13.6573 0.186361 13.409 0.068576L13.409 0.0687322Z" fill="white"/>
</svg>
