<svg width="25" height="19" viewBox="0 0 25 19" fill="none" xmlns="http://www.w3.org/2000/svg">
<path fill-rule="evenodd" clip-rule="evenodd" d="M12.6537 0.160583C12.8666 -0.013288 13.1608 -0.0492177 13.409 0.0687322L13.409 0.068576C13.6573 0.186361 13.8158 0.436816 13.8158 0.711687V17.999C13.8158 18.274 13.6575 18.5243 13.409 18.6421C13.3119 18.6882 13.2079 18.7107 13.1042 18.7107C12.943 18.7107 12.7834 18.656 12.6537 18.5502L6.63477 13.6341V5.07676L12.6537 0.160583ZM0.875 12.1337V6.57729C0.875 6.18414 1.19358 5.86554 1.58674 5.86554H5.21279V12.8454H1.58674C1.1936 12.8454 0.875 12.5269 0.875 12.1337ZM21.9142 9.5L24.4144 12.0002L23.0002 13.4144L20.5 10.9142L17.9998 13.4144L16.5856 12.0002L19.0858 9.5L16.5859 7.00015L18.0002 5.58594L20.5 8.08579L22.9998 5.58594L24.4141 7.00015L21.9142 9.5Z" fill="white"/>
</svg>
